HIERARCHY
ROOT hip
{
	OFFSET 0.000000 0.000000 0.000000 
	CHANNELS 6 Xposition Yposition Zposition Zrotation Yrotation Xrotation
	JOINT abdomen
	{
		OFFSET 0.000000 20.688101 -0.731520 
		CHANNELS 3 Zrotation Xrotation Yrotation
		JOINT chest
		{
			OFFSET 0.000000 11.704300 -0.487680 
			CHANNELS 3 Zrotation Xrotation Yrotation
			JOINT neck
			{
				OFFSET 0.000000 22.189400 -2.194560 
				CHANNELS 3 Zrotation Xrotation Yrotation
				JOINT head
				{
					OFFSET -0.243840 7.071330 1.219200 
					CHANNELS 3 Zrotation Xrotation Yrotation
					JOINT leftEye
					{
						OFFSET 4.145280 8.046740 8.046720 
						CHANNELS 3 Zrotation Xrotation Yrotation
						End Site
						{
							OFFSET 1.000000 0.000000 0.000000 
						}
					}
					JOINT rightEye
					{
						OFFSET -3.657600 8.046740 8.046720 
						CHANNELS 3 Zrotation Xrotation Yrotation
						End Site
						{
							OFFSET 1.000000 0.000000 0.000000 
						}
					}
				}
			}
			JOINT rCollar
			{
				OFFSET -2.682240 19.263399 -4.876800 
				CHANNELS 3 Zrotation Xrotation Yrotation
				JOINT rShldr
				{
					OFFSET -8.778240 -1.950730 1.463040 
					CHANNELS 3 Zrotation Xrotation Yrotation
					JOINT rForeArm
					{
						OFFSET -28.174200 -1.711500 0.487680 
						CHANNELS 3 Zrotation Xrotation Yrotation
						JOINT rHand
						{
							OFFSET -22.587900 0.773209 7.071360 
							CHANNELS 3 Zrotation Xrotation Yrotation
							JOINT rThumb1
							{
								OFFSET -1.219200 -0.487915 3.413760 
								CHANNELS 3 Zrotation Xrotation Yrotation
								JOINT rThumb2
								{
									OFFSET -3.370350 -0.524490 3.413760 
									CHANNELS 3 Zrotation Xrotation Yrotation
									End Site
									{
										OFFSET -1.782710 -1.182140 1.430490 
									}
								}
							}
							JOINT rIndex1
							{
								OFFSET -7.759470 0.938293 5.608320 
								CHANNELS 3 Zrotation Xrotation Yrotation
								JOINT rIndex2
								{
									OFFSET -2.540570 -0.884171 1.565380 
									CHANNELS 3 Zrotation Xrotation Yrotation
									End Site
									{
										OFFSET -1.625190 -0.234802 1.165020 
									}
								}
							}
							JOINT rMid1
							{
								OFFSET -8.247140 1.182130 3.413760 
								CHANNELS 3 Zrotation Xrotation Yrotation
								JOINT rMid2
								{
									OFFSET -3.101650 -0.590103 1.064700 
									CHANNELS 3 Zrotation Xrotation Yrotation
									End Site
									{
										OFFSET -2.485470 -0.328903 0.837420 
									}
								}
							}
							JOINT rRing1
							{
								OFFSET -8.828220 0.546677 1.516780 
								CHANNELS 3 Zrotation Xrotation Yrotation
								JOINT rRing2
								{
									OFFSET -2.609340 -0.819778 -0.019849 
									CHANNELS 3 Zrotation Xrotation Yrotation
									End Site
									{
										OFFSET -2.338420 -0.294052 0.168128 
									}
								}
							}
							JOINT rPinky1
							{
								OFFSET -8.272020 -0.047791 -0.458400 
								CHANNELS 3 Zrotation Xrotation Yrotation
								JOINT rPinky2
								{
									OFFSET -1.827340 -0.647385 -0.700984 
									CHANNELS 3 Zrotation Xrotation Yrotation
									End Site
									{
										OFFSET -1.692250 -0.517670 -0.607171 
									}
								}
							}
						}
					}
				}
			}
			JOINT lCollar
			{
				OFFSET 2.682240 19.263399 -4.876800 
				CHANNELS 3 Zrotation Xrotation Yrotation
				JOINT lShldr
				{
					OFFSET 8.778240 -1.950730 1.463040 
					CHANNELS 3 Zrotation Xrotation Yrotation
					JOINT lForeArm
					{
						OFFSET 28.174200 -1.711500 0.487680 
						CHANNELS 3 Zrotation Xrotation Yrotation
						JOINT lHand
						{
							OFFSET 22.587900 0.773209 7.071360 
							CHANNELS 3 Zrotation Xrotation Yrotation
							JOINT lThumb1
							{
								OFFSET 1.219200 -0.487915 3.413760 
								CHANNELS 3 Zrotation Xrotation Yrotation
								JOINT lThumb2
								{
									OFFSET 3.370350 -0.524490 3.413760 
									CHANNELS 3 Zrotation Xrotation Yrotation
									End Site
									{
										OFFSET 1.782710 -1.182140 1.430490 
									}
								}
							}
							JOINT lIndex1
							{
								OFFSET 7.759470 0.938293 5.608320 
								CHANNELS 3 Zrotation Xrotation Yrotation
								JOINT lIndex2
								{
									OFFSET 2.540570 -0.884171 1.565380 
									CHANNELS 3 Zrotation Xrotation Yrotation
									End Site
									{
										OFFSET 1.625190 -0.234802 1.165020 
									}
								}
							}
							JOINT lMid1
							{
								OFFSET 8.247140 1.182130 3.413760 
								CHANNELS 3 Zrotation Xrotation Yrotation
								JOINT lMid2
								{
									OFFSET 3.101650 -0.590103 1.064700 
									CHANNELS 3 Zrotation Xrotation Yrotation
									End Site
									{
										OFFSET 2.485470 -0.328903 0.837420 
									}
								}
							}
							JOINT lRing1
							{
								OFFSET 8.828220 0.546677 1.516780 
								CHANNELS 3 Zrotation Xrotation Yrotation
								JOINT lRing2
								{
									OFFSET 2.609340 -0.819778 -0.019849 
									CHANNELS 3 Zrotation Xrotation Yrotation
									End Site
									{
										OFFSET 2.338420 -0.294052 0.168128 
									}
								}
							}
							JOINT lPinky1
							{
								OFFSET 8.272020 -0.047791 -0.458400 
								CHANNELS 3 Zrotation Xrotation Yrotation
								JOINT lPinky2
								{
									OFFSET 1.827340 -0.647385 -0.700984 
									CHANNELS 3 Zrotation Xrotation Yrotation
									End Site
									{
										OFFSET 1.692250 -0.517670 -0.607171 
									}
								}
							}
						}
					}
				}
			}
		}
	}
	JOINT rButtock
	{
		OFFSET -8.778240 4.350840 1.219200 
		CHANNELS 3 Zrotation Xrotation Yrotation
		JOINT rThigh
		{
			OFFSET 0.000000 -1.706870 -2.194560 
			CHANNELS 3 Zrotation Xrotation Yrotation
			JOINT rShin
			{
				OFFSET 0.000000 -36.819901 0.731520 
				CHANNELS 3 Zrotation Xrotation Yrotation
				JOINT rFoot
				{
					OFFSET 0.731520 -45.110401 -5.120640 
					CHANNELS 3 Zrotation Xrotation Yrotation
					End Site
					{
						OFFSET -1.122100 -3.699640 12.103000 
					}
				}
			}
		}
	}
	JOINT lButtock
	{
		OFFSET 8.778240 4.350840 1.219200 
		CHANNELS 3 Zrotation Xrotation Yrotation
		JOINT lThigh
		{
			OFFSET 0.000000 -1.706870 -2.194560 
			CHANNELS 3 Zrotation Xrotation Yrotation
			JOINT lShin
			{
				OFFSET 0.000000 -36.819901 0.731520 
				CHANNELS 3 Zrotation Xrotation Yrotation
				JOINT lFoot
				{
					OFFSET -0.731520 -45.110401 -5.120640 
					CHANNELS 3 Zrotation Xrotation Yrotation
					End Site
					{
						OFFSET 1.122100 -3.699640 12.103000 
					}
				}
			}
		}
	}
}
MOTION
Frames: 7
Frame Time: 0.040000
0.000000 0.000000 -190.000000 0.000000 0.000000 0.000000 -11.134500 24.676001 -0.801000 -0.029700 -0.053000 0.054600 -5.918000 5.710800 -4.036200 6.049700 5.956900 2.337700 0.000000 0.000000 0.000000 0.000000 0.000000 0.000000 0.000000 0.000000 0.000000 78.103401 39.899700 -3.763700 -16.954901 -8.700400 24.321800 0.895500 10.077800 1.460100 0.000000 0.000000 0.000000 0.000000 0.000000 0.000000 0.000000 0.000000 0.000000 0.025200 0.009500 0.017500 0.000000 0.000000 0.000000 0.005900 0.036500 0.012900 0.000000 0.000000 0.000000 0.013400 0.006700 0.035300 0.000000 0.000000 0.000000 0.016700 -0.027400 -0.036400 0.000000 0.000000 0.000000 -75.014999 21.519501 -1.696400 5.735800 -3.493500 -13.126700 -6.250200 13.345400 -6.321900 0.000000 0.000000 0.000000 0.000000 0.000000 0.000000 0.000000 0.000000 0.000000 -0.007100 0.025200 -0.015300 0.000000 0.000000 0.000000 -0.006700 0.023800 -0.008500 0.000000 0.000000 0.000000 -0.035900 0.020100 -0.009800 0.000000 0.000000 0.000000 -0.024500 -0.023000 0.020200 0.000000 0.000000 0.000000 0.279300 -8.460300 9.071000 -1.441900 32.722401 1.622500 -1.821200 -10.814400 -7.213800 0.000000 0.000000 0.000000 45.697899 -50.660198 52.883099 13.680900 32.503201 -27.014601 -1.865400 -5.187900 -2.941200 
0.000000 0.000000 -190.000000 0.000000 0.000000 0.000000 -17.993500 18.760099 -2.488500 -0.029800 -0.053100 0.054700 -5.061600 6.321600 -3.664200 6.118800 4.276500 2.838900 0.000000 0.000000 0.000000 0.000000 0.000000 0.000000 0.000000 0.000000 0.000000 76.022903 46.376999 -4.135100 -17.687901 -8.566000 24.593500 1.123300 8.652800 1.104500 0.000000 0.000000 0.000000 0.000000 0.000000 0.000000 0.000000 0.000000 0.000000 0.025200 0.009500 0.017600 0.000000 0.000000 0.000000 0.005900 0.036500 0.012900 0.000000 0.000000 0.000000 0.013400 0.006700 0.035300 0.000000 0.000000 0.000000 0.016700 -0.027400 -0.036400 0.000000 0.000000 0.000000 -76.860298 22.246000 6.220100 6.277500 -3.381300 -16.010900 -6.285000 12.776100 -5.843300 0.000000 0.000000 0.000000 0.000000 0.000000 0.000000 0.000000 0.000000 0.000000 -0.007100 0.025200 -0.015300 0.000000 0.000000 0.000000 -0.006700 0.023900 -0.008600 0.000000 0.000000 0.000000 -0.036000 0.020100 -0.009800 0.000000 0.000000 0.000000 -0.024500 -0.023100 0.020200 0.000000 0.000000 0.000000 2.756800 7.095000 15.963900 -6.134300 31.146900 1.361700 -2.032000 -11.264100 -7.110000 0.000000 0.000000 0.000000 29.691500 -40.932800 -9.130500 16.414400 22.824699 -2.395000 -0.988600 -7.906600 -2.000900 
0.000000 0.000000 -190.000000 0.000000 0.000000 0.000000 -17.069901 15.012400 -4.421000 -0.029800 -0.053100 0.054700 -6.159700 5.673400 -4.556400 6.416300 2.186500 2.439900 0.000000 0.000000 0.000000 0.000000 0.000000 0.000000 0.000000 0.000000 0.000000 74.640099 54.365898 0.782200 -18.205400 -11.208300 24.305401 1.126000 9.388000 1.170100 0.000000 0.000000 0.000000 0.000000 0.000000 0.000000 0.000000 0.000000 0.000000 0.025200 0.009500 0.017500 0.000000 0.000000 0.000000 0.005900 0.036500 0.012900 0.000000 0.000000 0.000000 0.013400 0.006700 0.035300 0.000000 0.000000 0.000000 0.016700 -0.027400 -0.036400 0.000000 0.000000 0.000000 -76.656998 22.160700 4.819000 6.834800 -5.841900 -15.821000 -6.038700 12.266000 -4.549700 0.000000 0.000000 0.000000 0.000000 0.000000 0.000000 0.000000 0.000000 0.000000 -0.007100 0.025200 -0.015300 0.000000 0.000000 0.000000 -0.006700 0.023900 -0.008600 0.000000 0.000000 0.000000 -0.036000 0.020100 -0.009800 0.000000 0.000000 0.000000 -0.024500 -0.023100 0.020200 0.000000 0.000000 0.000000 1.139700 9.312500 10.244300 -9.693100 33.784801 2.155400 -2.066800 -11.804500 -7.229300 0.000000 0.000000 0.000000 24.867201 -33.713001 -6.904300 15.968100 22.756300 -6.301900 -0.121700 -7.807700 -1.617100 
0.000000 0.000000 -190.000000 0.000000 0.000000 0.000000 -16.377100 14.083500 -2.707100 -0.029800 -0.053200 0.054800 -6.371000 4.986200 -5.027300 6.996000 3.164900 1.145500 0.000000 0.000000 0.000000 0.000000 0.000000 0.000000 0.000000 0.000000 0.000000 76.102402 49.038898 0.613000 -17.679701 -8.509800 24.541300 1.210800 9.049000 1.249400 0.000000 0.000000 0.000000 0.000000 0.000000 0.000000 0.000000 0.000000 0.000000 0.025200 0.009500 0.017600 0.000000 0.000000 0.000000 0.005900 0.036500 0.012900 0.000000 0.000000 0.000000 0.013400 0.006700 0.035400 0.000000 0.000000 0.000000 0.016700 -0.027400 -0.036400 0.000000 0.000000 0.000000 -78.589600 23.750700 5.593000 6.911600 -5.773700 -13.744300 -5.849900 10.301800 -4.016000 0.000000 0.000000 0.000000 0.000000 0.000000 0.000000 0.000000 0.000000 0.000000 -0.007100 0.025300 -0.015300 0.000000 0.000000 0.000000 -0.006700 0.023900 -0.008600 0.000000 0.000000 0.000000 -0.036000 0.020100 -0.009800 0.000000 0.000000 0.000000 -0.024500 -0.023100 0.020200 0.000000 0.000000 0.000000 0.509300 6.329800 9.258800 -10.376300 32.558102 2.224700 -2.267100 -11.786700 -7.238900 0.000000 0.000000 0.000000 20.668200 -25.919201 -3.804700 11.951900 22.449800 -8.445500 0.491400 -8.793100 -1.289700 
0.000000 0.000000 -190.000000 0.000000 0.000000 0.000000 -15.925400 14.738100 -2.277800 -0.029800 -0.053200 0.054800 -6.705000 4.469600 -4.725200 6.927600 1.673200 0.800000 0.000000 0.000000 0.000000 0.000000 0.000000 0.000000 0.000000 0.000000 0.000000 76.696198 44.227901 0.697000 -16.972401 -9.150800 24.939199 1.292000 9.387700 1.376400 0.000000 0.000000 0.000000 0.000000 0.000000 0.000000 0.000000 0.000000 0.000000 0.025200 0.009500 0.017600 0.000000 0.000000 0.000000 0.005900 0.036500 0.012900 0.000000 0.000000 0.000000 0.013400 0.006700 0.035400 0.000000 0.000000 0.000000 0.016700 -0.027400 -0.036400 0.000000 0.000000 0.000000 -77.427002 17.952600 8.029600 7.293700 -6.549700 -12.953500 -5.992000 12.021600 -4.406500 0.000000 0.000000 0.000000 0.000000 0.000000 0.000000 0.000000 0.000000 0.000000 -0.007100 0.025300 -0.015300 0.000000 0.000000 0.000000 -0.006700 0.023900 -0.008600 0.000000 0.000000 0.000000 -0.036000 0.020100 -0.009800 0.000000 0.000000 0.000000 -0.024500 -0.023100 0.020200 0.000000 0.000000 0.000000 1.525600 2.580100 6.732500 -11.572000 32.540901 2.375700 -2.351600 -11.919800 -7.201700 0.000000 0.000000 0.000000 16.439501 -18.996099 -1.784200 5.362800 21.106800 -8.977600 1.945800 -8.658100 -0.280800 
0.000000 0.000000 -190.000000 0.000000 0.000000 0.000000 -15.246700 17.268801 -5.191800 -0.029800 -0.053200 0.054800 -6.823600 5.019200 -4.159800 6.856800 3.115600 -0.086400 0.000000 0.000000 0.000000 0.000000 0.000000 0.000000 0.000000 0.000000 0.000000 77.260696 56.146999 4.207700 -16.936899 -12.110300 24.559299 1.240600 9.498200 1.346900 0.000000 0.000000 0.000000 0.000000 0.000000 0.000000 0.000000 0.000000 0.000000 0.025300 0.009500 0.017600 0.000000 0.000000 0.000000 0.005900 0.036600 0.012900 0.000000 0.000000 0.000000 0.013400 0.006700 0.035400 0.000000 0.000000 0.000000 0.016700 -0.027400 -0.036500 0.000000 0.000000 0.000000 -77.986198 28.566799 5.711400 7.249800 -5.576100 -15.452300 -5.507700 9.081400 -3.337200 0.000000 0.000000 0.000000 0.000000 0.000000 0.000000 0.000000 0.000000 0.000000 -0.007100 0.025300 -0.015300 0.000000 0.000000 0.000000 -0.006700 0.023900 -0.008600 0.000000 0.000000 0.000000 -0.036000 0.020200 -0.009800 0.000000 0.000000 0.000000 -0.024600 -0.023100 0.020300 0.000000 0.000000 0.000000 5.747000 -7.641700 7.788000 -11.983100 34.295898 2.309200 -2.196800 -11.974500 -7.169500 0.000000 0.000000 0.000000 15.137500 -18.318501 4.346300 0.505400 26.908100 -9.204800 2.422000 -8.550000 0.849300 
0.000000 0.000000 -190.000000 0.000000 0.000000 0.000000 -3.211800 11.230200 -2.199300 -0.010200 -0.011700 0.049500 -7.643800 3.014900 -3.938300 20.718901 -9.056900 -3.561600 0.000000 0.000000 0.000000 0.000000 0.000000 0.000000 0.000000 0.000000 0.000000 76.162804 32.678001 -0.578200 -11.727200 -7.235200 31.268000 8.184900 30.537600 5.752800 0.000000 0.000000 0.000000 0.000000 0.000000 0.000000 0.000000 0.000000 0.000000 0.023300 0.013300 0.013500 0.000000 0.000000 0.000000 0.029600 0.008500 0.015600 0.000000 0.000000 0.000000 0.015300 0.020600 0.034700 0.000000 0.000000 0.000000 0.027300 -0.022000 -0.029000 0.000000 0.000000 0.000000 -78.682999 29.103100 7.720400 10.570800 -6.945800 -20.511900 -14.347000 3.976200 -13.400400 0.000000 0.000000 0.000000 0.000000 0.000000 0.000000 0.000000 0.000000 0.000000 -0.013100 0.006100 -0.005100 0.000000 0.000000 0.000000 -0.032500 0.029800 -0.004900 0.000000 0.000000 0.000000 -0.029700 0.004100 -0.032100 0.000000 0.000000 0.000000 -0.003800 -0.018200 0.013700 0.000000 0.000000 0.000000 -0.846300 1.298300 -4.301000 5.556500 22.908100 -2.333300 -0.944800 -9.175500 -8.091100 0.000000 0.000000 0.000000 14.558700 -17.533701 -5.704700 7.252600 19.260300 -1.236800 3.097000 -11.547300 7.319400 
